<svg xmlns="http://www.w3.org/2000/svg" width="80" height="80" viewBox="0 0 512 512" id="guaranteed"><path fill="#fff" d="M454.162 150.773c-3.46-3.248-6.557-6.121-9.338-8.701-22.597-20.962-22.597-20.962-29.452-51.013-.845-3.699-1.784-7.818-2.866-12.438-5.264-22.471-24.283-38.431-47.327-39.712-4.738-.263-8.958-.474-12.747-.662-30.784-1.533-30.784-1.533-55.353-20.147a2128.743 2128.743 0 0 0-10.188-7.685c-18.477-13.831-43.305-13.831-61.781 0a2079.472 2079.472 0 0 0-10.188 7.685c-24.568 18.614-24.568 18.614-55.353 20.147-3.789.188-8.009.399-12.747.662-23.044 1.282-42.063 17.241-47.328 39.712-1.082 4.62-2.021 8.739-2.865 12.438-6.855 30.05-6.855 30.05-29.452 51.012-2.781 2.581-5.878 5.454-9.338 8.701-16.828 15.794-21.14 40.245-10.729 60.842 2.141 4.234 4.068 7.994 5.8 11.369 14.064 27.427 14.064 27.427 10.229 58.012-.472 3.764-.997 7.955-1.561 12.666-2.739 22.916 9.675 44.418 30.891 53.504 4.361 1.868 8.254 3.509 11.749 4.981 14.636 6.168 21.727 9.163 27.453 14.155L85.87 464.677a8.003 8.003 0 0 0 8.63 11.258l45.641-7.975 23.277 40.059a7.999 7.999 0 0 0 14.17-.643l40.323-86.612c3.121-.952 5.992-1.837 8.638-2.654 29.451-9.088 29.453-9.088 58.904 0 3.02.932 6.346 1.957 9.992 3.066l40.131 86.2a8.003 8.003 0 0 0 7.254 4.623c2.84 0 5.479-1.51 6.916-3.98l23.277-40.059 45.641 7.975a8.002 8.002 0 0 0 8.63-11.258l-46.13-99.082c5.59-4.581 12.685-7.576 26.619-13.448 3.496-1.474 7.389-3.114 11.75-4.982 21.216-9.086 33.63-30.587 30.892-53.504-.563-4.711-1.089-8.902-1.562-12.667-3.836-30.584-3.836-30.584 10.229-58.011 1.73-3.376 3.658-7.135 5.799-11.369 10.411-20.596 6.099-45.047-10.729-60.841zM169.551 486.729l-18.379-31.627a8.01 8.01 0 0 0-8.294-3.861l-36.034 6.296 36.043-77.417c1.885 2.817 3.985 6.064 6.454 9.889 2.059 3.188 4.351 6.738 6.948 10.71 9.662 14.774 25.584 23.203 42.425 23.367l-29.163 62.643zm200.733-35.489a8.004 8.004 0 0 0-8.294 3.861l-18.379 31.627-29.17-62.658c16.411-.53 31.828-8.915 41.271-23.352 2.597-3.972 4.889-7.521 6.946-10.708 2.774-4.297 5.083-7.868 7.142-10.912l36.518 78.437-36.034-6.295zm80.327-246.843a2093.176 2093.176 0 0 1-5.757 11.286c-15.86 30.929-16.193 32.815-11.867 67.303.469 3.737.99 7.898 1.55 12.574 1.918 16.051-6.444 30.534-21.304 36.898-4.33 1.854-8.194 3.482-11.665 4.944-32.029 13.498-33.497 14.729-52.351 43.929-2.044 3.164-4.318 6.688-6.896 10.629-8.848 13.527-24.563 19.247-40.036 14.571-4.509-1.362-8.517-2.599-12.115-3.709-16.605-5.124-25.388-7.687-34.17-7.687s-17.564 2.563-34.17 7.687c-3.599 1.11-7.606 2.347-12.115 3.709-15.472 4.677-31.188-1.043-40.035-14.571-2.579-3.943-4.854-7.467-6.897-10.631-18.854-29.197-20.322-30.429-52.352-43.927a2120.126 2120.126 0 0 1-11.664-4.944c-14.859-6.364-23.222-20.848-21.303-36.898a2075.9 2075.9 0 0 1 1.55-12.573c4.325-34.489 3.992-36.375-11.868-67.304a2093.176 2093.176 0 0 1-5.757-11.286c-7.292-14.427-4.388-30.896 7.398-41.958 3.435-3.224 6.51-6.076 9.271-8.637 25.48-23.638 26.438-25.298 34.169-59.184.838-3.672 1.771-7.761 2.845-12.347 3.688-15.739 16.499-26.489 32.639-27.386 4.703-.262 8.893-.471 12.654-.658 34.714-1.729 36.514-2.384 64.219-23.375 3.002-2.274 6.344-4.807 10.114-7.629 12.941-9.687 29.664-9.687 42.605 0 3.771 2.822 7.112 5.354 10.114 7.629 27.705 20.99 29.505 21.646 64.219 23.375 3.762.187 7.951.396 12.654.658 16.14.897 28.951 11.647 32.638 27.386 1.074 4.586 2.007 8.675 2.845 12.347 7.731 33.886 8.689 35.546 34.17 59.184 2.761 2.562 5.836 5.414 9.271 8.637 11.785 11.062 14.689 27.532 7.397 41.958zM256 79.06c-73.337 0-133 59.664-133 133s59.663 133 133 133 133-59.664 133-133-59.663-133-133-133zm0 250.001c-64.514 0-117-52.486-117-117s52.486-117 117-117 117 52.486 117 117-52.486 117-117 117zm39.567-101.278h-.012c-8.45.003-16.394 3.296-22.366 9.273-5.974 5.977-9.261 13.923-9.258 22.373.003 8.451 3.296 16.395 9.273 22.368 5.975 5.97 13.916 9.258 22.363 9.258h.01c17.444-.007 31.632-14.203 31.625-31.646-.003-8.451-3.296-16.395-9.273-22.368-5.974-5.971-13.914-9.258-22.362-9.258zm.006 47.272h-.005a15.536 15.536 0 0 1-11.054-4.576 15.53 15.53 0 0 1-4.583-11.055c-.002-4.177 1.623-8.104 4.575-11.058s6.878-4.582 11.055-4.583h.006c4.175 0 8.1 1.625 11.053 4.576a15.53 15.53 0 0 1 4.583 11.055c.003 8.621-7.009 15.638-15.63 15.641zm-79.129-78.716c17.443-.006 31.63-14.203 31.625-31.647-.007-17.441-14.197-31.625-31.637-31.625h-.011c-17.443.006-31.63 14.203-31.625 31.647.007 17.441 14.196 31.626 31.635 31.625h.013zm-15.647-31.63c-.003-8.622 7.01-15.639 15.631-15.642h.005c8.619 0 15.634 7.011 15.637 15.63.003 8.622-7.009 15.639-15.631 15.642h-.006c-8.62 0-15.633-7.011-15.636-15.63zm106.712-10.1-88.583 123.37a7.992 7.992 0 0 1-6.505 3.335 7.961 7.961 0 0 1-4.659-1.503 8 8 0 0 1-1.832-11.164l88.583-123.37a8 8 0 0 1 12.996 9.332z"></path></svg>