<svg xmlns="http://www.w3.org/2000/svg" version="1.1" xmlns:xlink="http://www.w3.org/1999/xlink" xmlns:svgjs="http://svgjs.dev/svgjs" width="1000" height="95" viewBox="0 0 1000 95"><g transform="matrix(1,0,0,1,-0.6058263440197038,-0.62065554873449)"><svg viewBox="0 0 396 38" data-background-color="#ffffff" preserveAspectRatio="xMidYMid meet" height="95" width="1000" xmlns="http://www.w3.org/2000/svg" xmlns:xlink="http://www.w3.org/1999/xlink"><g id="tight-bounds" transform="matrix(1,0,0,1,0.2400927677681466,0.248262219493796)"><svg viewBox="0 0 395.52 37.503380394833165" height="37.503380394833165" width="395.52"><g><svg viewBox="0 0 395.52 37.503380394833165" height="37.503380394833165" width="395.52"><g><svg viewBox="0 0 395.52 37.503380394833165" height="37.503380394833165" width="395.52"><g id="textblocktransform"><svg viewBox="0 0 395.52 37.503380394833165" height="37.503380394833165" width="395.52" id="textblock"><g><svg viewBox="0 0 395.52 37.503380394833165" height="37.503380394833165" width="395.52"><g transform="matrix(1,0,0,1,0,0)"><svg width="395.52" viewBox="2.9232096672058105 -30.088356018066406 446.9632873535156 42.381248474121094" height="37.503380394833165" data-palette-color="#42b549"><path d="M13.01 12.123v0c-2.591 0.22-5.046 0.22-7.366 0.002v0l-2.721-32.105c2.091-0.431 4.532-0.765 7.322-1.001 2.79-0.236 5.346-0.072 7.669 0.494 2.33 0.572 4.315 1.498 5.956 2.777v0c3.307 2.55 5.175 6.359 5.605 11.427v0c0.481 5.68-0.864 10.136-4.036 13.369v0c-2.845 2.897-6.988 4.577-12.429 5.037zM9.627-15.008l1.811 21.374c1.053 0.105 2.1 0.113 3.144 0.024 1.036-0.088 2.138-0.389 3.305-0.902 1.161-0.507 2.147-1.229 2.958-2.168v0c1.732-1.987 2.45-4.72 2.155-8.201v0c-0.485-5.726-2.873-9.07-7.163-10.031v0c-1.412-0.315-3.021-0.396-4.827-0.243v0l-0.648 0.055c-0.239 0.02-0.484 0.051-0.735 0.092zM43.611 3.297l9.804-0.716c0.991-0.072 1.672-0.219 2.044-0.44v0l0.091 0.024 0.201 6.041-17.982 1.314-2.345-32.105c0.435 0.002 0.919-0.007 1.452-0.026v0l1.678-0.082c1.126-0.049 2.344-0.121 3.654-0.217v0c3.664-0.268 7.286-0.596 10.867-0.984v0c-0.077 1.423-0.029 3.311 0.143 5.664v0c0.018 0.253 0.049 0.441 0.092 0.565v0l-0.044 0.084c-0.849-0.179-2.041-0.212-3.577-0.1v0l-7.57 0.553 0.447 6.114 5.695-0.416c1.762-0.129 2.816-0.252 3.161-0.372v0l0.503 5.929c-0.777-0.023-1.774 0.009-2.991 0.098v0l-5.954 0.435zM79.688-23.577v0l-0.019 7.095-0.157 0.06c-1.302-1.702-3.393-2.731-6.274-3.086v0c-0.909-0.117-1.776-0.15-2.601-0.099-0.825 0.051-1.526 0.165-2.103 0.341-0.576 0.183-1.062 0.423-1.458 0.722v0c-0.849 0.634-1.245 1.413-1.187 2.338v0c0.076 1.218 0.519 2.109 1.329 2.673v0c1.004 0.672 2.629 1.089 4.877 1.25 2.248 0.161 4.059 0.455 5.435 0.884 1.376 0.429 2.521 1.009 3.435 1.74v0c1.728 1.369 2.676 3.4 2.844 6.095v0c0.219 3.52-0.943 6.317-3.486 8.393v0c-2.174 1.772-4.991 2.765-8.451 2.98v0c-2.788 0.173-5.576-0.184-8.363-1.073v0c-0.92-0.297-1.731-0.654-2.431-1.071v0l-0.23-8.051 0.085-0.075c2.203 3.303 5.57 4.813 10.101 4.531v0c3.22-0.2 5.301-1.108 6.243-2.723v0c0.32-0.554 0.459-1.154 0.419-1.799-0.041-0.652-0.177-1.181-0.409-1.588-0.233-0.413-0.598-0.758-1.097-1.034v0c-0.969-0.548-2.558-0.859-4.767-0.936-2.209-0.07-4.026-0.351-5.453-0.843-1.433-0.485-2.592-1.128-3.476-1.928v0c-1.599-1.443-2.485-3.543-2.656-6.297v0c-0.178-2.854 0.68-5.222 2.574-7.103v0c1.924-1.923 4.61-2.992 8.056-3.207 3.453-0.215 6.527 0.389 9.22 1.811zM91.589 6.052l-1.734-32.063c1.601-0.026 2.571-0.049 2.911-0.068v0l1.727-0.093c0.852-0.046 1.531-0.146 2.037-0.301v0l1.719 32.164zM132.601-15.19l0.082 0.047c-0.283 0.559-0.38 1.875-0.29 3.946v0l0.321 7.453c0.097 2.258-0.99 4.273-3.262 6.046v0c-2.342 1.849-5.269 2.85-8.779 3.002v0c-4.875 0.21-8.831-1.154-11.867-4.093v0c-2.93-2.796-4.492-6.456-4.688-10.978v0c-0.207-4.809 1.045-8.877 3.757-12.203v0c3.035-3.748 7.353-5.742 12.954-5.984v0c3.73-0.161 6.718 0.434 8.966 1.785v0l-0.084 7.11-0.188 0.058c-0.602-0.955-1.742-1.71-3.42-2.264v0c-1.597-0.525-3.259-0.75-4.984-0.676-1.725 0.074-3.219 0.412-4.481 1.014-1.269 0.602-2.331 1.425-3.186 2.47v0c-1.802 2.153-2.63 4.928-2.484 8.325v0c0.128 2.964 1.063 5.309 2.806 7.035v0c1.749 1.706 3.935 2.503 6.56 2.39v0c2.904-0.125 4.83-0.962 5.777-2.512v0c0.299-0.493 0.435-1.046 0.408-1.659v0l-0.172-3.986-3.107 0.134c-1.665 0.072-2.565 0.254-2.699 0.547v0l-0.07-0.017-0.491-6.275c0.459 0.114 2.283 0.102 5.473-0.036v0l2.838-0.122c1.765-0.076 3.202-0.262 4.31-0.557zM146.304 3.751l-6.277 0.195c0.076-0.549 0.105-1.144 0.085-1.783v0l-0.939-30.226 4.818-0.149 13.377 19.674-0.573-18.431c-0.028-0.886-0.124-1.43-0.29-1.632v0l6.496-0.202c-0.067 0.642-0.088 1.35-0.064 2.123v0l0.929 29.886-4.998 0.155-13.162-18.881zM202.536 2.616l-7.219 0.077c0.2-0.629 0.288-2.09 0.263-4.383v0l-0.07-6.69c-2.838-6.09-4.652-9.888-5.441-11.393-0.789-1.512-1.452-2.705-1.988-3.579v0c-1.696-2.809-2.72-4.418-3.072-4.828-0.351-0.416-0.705-0.759-1.06-1.029v0l8.309-0.088c0.177 0.318 0.422 0.789 0.735 1.413v0l5.96 12.237c0.26-0.676 0.572-1.433 0.936-2.27v0c3.42-7.563 5.153-11.402 5.198-11.516v0l7.94-0.084c-0.806 0.669-1.795 2.059-2.966 4.172v0c-0.36 0.631-0.719 1.348-1.077 2.152v0l-5.32 11.397c-0.599 1.373-1.109 2.609-1.531 3.706v0l0.073 6.91c0.017 1.6 0.127 2.865 0.33 3.796zM219.789-1.287c-1.458-1.402-2.605-3.084-3.442-5.046-0.837-1.955-1.254-4.102-1.25-6.441 0.004-2.333 0.4-4.543 1.19-6.629 0.79-2.085 1.916-3.92 3.379-5.504 1.462-1.584 3.228-2.845 5.296-3.782 2.075-0.937 4.396-1.403 6.962-1.399v0c4.427 0.007 8.154 1.409 11.184 4.207v0c3.242 2.992 4.859 7.021 4.851 12.088v0c-0.008 4.913-1.684 8.997-5.029 12.252v0c-2.056 2.003-4.505 3.38-7.347 4.128v0c-1.401 0.364-3.034 0.545-4.901 0.543-1.873-0.003-3.793-0.389-5.758-1.159-1.959-0.776-3.67-1.862-5.135-3.258zM221.788-13.084v0c-0.002 1.493 0.246 2.867 0.743 4.121 0.491 1.247 1.18 2.322 2.065 3.223v0c1.87 1.896 4.282 2.847 7.236 2.852v0c2.807 0.004 5.065-0.899 6.774-2.71v0c1.736-1.871 2.607-4.429 2.612-7.676v0c0.005-3.047-0.818-5.591-2.468-7.634v0c-1.783-2.183-4.222-3.277-7.315-3.281v0c-3-0.005-5.385 1.098-7.155 3.309v0c-1.657 2.071-2.487 4.669-2.492 7.796zM272.385-9.722l0.286-19.498c0.992 0.095 1.818 0.147 2.478 0.157v0l1.999 0.029c0.673 0.01 1.381-0.043 2.123-0.159v0l-0.292 19.908c-0.058 3.946-1.301 7.098-3.729 9.456v0c-2.3 2.227-5.156 3.315-8.569 3.265v0c-3.74-0.055-6.752-1.069-9.036-3.043v0c-2.554-2.224-3.801-5.39-3.741-9.496v0l0.299-20.388c1.332 0.1 2.588 0.158 3.767 0.176 1.18 0.017 2.157-0.032 2.933-0.147v0l-0.305 20.767c-0.03 2.026 0.564 3.609 1.781 4.747v0c1.138 1.043 2.574 1.578 4.307 1.603v0c2.573 0.038 4.302-1.25 5.187-3.864v0c0.321-0.942 0.491-2.113 0.512-3.513zM302.648 3.859l-5.242-12.788c-0.481 0.02-0.994 0.023-1.541 0.008-0.546-0.015-1.355-0.077-2.426-0.187v0l-0.343 12.516-6.377-0.175 0.882-32.178c2.254-0.225 5.017-0.293 8.288-0.203v0c4.458 0.122 7.761 1.036 9.909 2.742 2.148 1.699 3.174 4.269 3.08 7.708v0c-0.073 2.659-1.138 4.907-3.196 6.745v0c-0.677 0.595-1.447 1.104-2.313 1.527v0l4.635 10.481c0.901 2.165 1.603 3.455 2.105 3.869v0l-0.124 0.116c-1.546-0.302-3.992-0.363-7.337-0.181zM296.194-23.458v0c-0.82-0.022-1.607-0.004-2.363 0.056v0l-0.252 9.196c0.783 0.135 1.705 0.217 2.764 0.246 1.06 0.029 1.952-0.04 2.677-0.207 0.725-0.167 1.359-0.436 1.903-0.808v0c1.163-0.815 1.767-2.072 1.814-3.772 0.047-1.699-0.514-2.912-1.681-3.637v0c-1.089-0.657-2.71-1.015-4.862-1.074zM342.987 5.318l-0.054 0.078c-0.476-0.09-1.294-0.163-2.452-0.22v0l-2.787-0.135c-0.546-0.027-0.996-0.032-1.351-0.016v0l-0.017-0.051c0.072-0.11 0.112-0.238 0.119-0.385 0.007-0.14 0.001-0.29-0.018-0.451-0.019-0.161-0.068-0.454-0.148-0.878-0.086-0.425-0.213-1.032-0.382-1.821v0l-6.789-28.965c1.023 0.11 2.263 0.2 3.722 0.272 1.458 0.071 2.407 0.054 2.845-0.052v0l4.624 22.041 6.578-21.395c0.239 0.025 0.455 0.049 0.648 0.071v0l0.529 0.026c0.531 0.059 1.196 0.108 1.995 0.147 0.799 0.039 1.628 0.016 2.486-0.069v0l4.564 22.038 5.889-21.428c0.963 0.107 2.22 0.198 3.771 0.273 1.558 0.076 2.507 0.059 2.846-0.051v0l-8.157 25.033c-1.021 2.874-1.571 4.582-1.651 5.125-0.073 0.544-0.115 0.919-0.125 1.126-0.01 0.206 0.015 0.375 0.075 0.504v0l-0.054 0.077c-0.509-0.092-1.317-0.164-2.422-0.218v0c-0.966-0.047-1.841-0.09-2.627-0.128-0.786-0.038-1.356-0.049-1.71-0.033v0l-0.018-0.051c0.072-0.11 0.112-0.238 0.119-0.385 0.007-0.14 0.004-0.283-0.009-0.431-0.006-0.147-0.036-0.426-0.089-0.835-0.053-0.41-0.14-1.021-0.261-1.835v0l-0.491-3.298-3.215-15.174-4.472 14.73c-0.922 3.025-1.41 4.767-1.466 5.225v0c-0.103 0.883-0.118 1.396-0.045 1.54zM377.454 0.167l-2.702 6.964c-1.369-0.213-2.976-0.377-4.819-0.493v0l-1.896-0.119 12.291-28.636c0.548-1.281 0.829-2.032 0.843-2.251 0.013-0.213 0.012-0.343-0.006-0.391v0l0.033-0.048c1.035 0.112 2.138 0.205 3.309 0.278v0c0.958 0.06 2.11 0.116 3.457 0.167v0l0.026 0.052c-0.037 0.064-0.06 0.153-0.066 0.266v0c-0.019 0.299 0.17 1.123 0.566 2.47v0l8.825 30.003c-0.319-0.033-0.694-0.064-1.127-0.091v0c0 0-0.415-0.043-1.244-0.128v0c-0.399-0.025-0.762-0.048-1.088-0.069v0l-3.722-0.233-1.821-7.059zM379.643-5.487l7.156 0.45-2.92-11.406zM416.941 9.985l-4.653-13.014c-0.481-0.002-0.994-0.023-1.54-0.062-0.545-0.04-1.35-0.139-2.415-0.297v0l-0.913 12.486-6.363-0.465 2.348-32.104c2.262-0.122 5.025-0.064 8.29 0.175v0c4.448 0.325 7.706 1.389 9.773 3.191 2.068 1.796 2.976 4.409 2.725 7.84v0c-0.194 2.653-1.361 4.85-3.5 6.592v0c-0.703 0.564-1.496 1.037-2.38 1.421v0l4.152 10.681c0.801 2.204 1.443 3.525 1.926 3.961v0l-0.128 0.111c-1.53-0.373-3.971-0.544-7.322-0.516zM411.739-17.598v0c-0.818-0.06-1.605-0.077-2.362-0.052v0l-0.672 9.175c0.776 0.17 1.693 0.294 2.751 0.372 1.057 0.077 1.952 0.049 2.683-0.084 0.732-0.134 1.378-0.374 1.938-0.721v0c1.199-0.761 1.86-1.99 1.984-3.685 0.124-1.695-0.38-2.932-1.514-3.71v0c-1.058-0.706-2.661-1.137-4.808-1.295zM436.305 5.554l9.796 0.819c0.99 0.083 1.686 0.044 2.086-0.117v0l0.088 0.038-0.743 5.999-17.967-1.502 2.681-32.078c0.429 0.069 0.908 0.136 1.439 0.2v0l1.67 0.18c1.12 0.127 2.334 0.245 3.644 0.355v0c3.661 0.306 7.29 0.546 10.887 0.719v0c-0.297 1.393-0.544 3.266-0.74 5.618v0c-0.021 0.252-0.02 0.443 0.002 0.572v0l-0.056 0.076c-0.81-0.309-1.983-0.527-3.518-0.655v0l-7.563-0.633-0.511 6.109 5.69 0.476c1.761 0.147 2.821 0.189 3.181 0.125v0l-0.426 5.935c-0.764-0.144-1.754-0.267-2.97-0.368v0l-5.949-0.498z" opacity="1" transform="matrix(1,0,0,1,0,0)" fill="#42b549" class="undefined-text-0" data-fill-palette-color="primary" id="text-0"></path></svg></g></svg></g></svg></g></svg></g><g></g></svg></g><defs></defs></svg><rect width="395.52" height="37.503380394833165" fill="none" stroke="none" visibility="hidden"></rect></g></svg></g></svg>